<svg width="19" height="19" viewBox="0 0 19 19" fill="none" xmlns="http://www.w3.org/2000/svg">
<path d="M5.66965 9.70165C6.44762 11.2921 7.73687 12.5755 9.3309 13.3463C9.44753 13.4015 9.57654 13.4255 9.70523 13.4157C9.83392 13.406 9.95786 13.3629 10.0648 13.2907L12.4119 11.7256C12.5157 11.6564 12.6352 11.6142 12.7594 11.6028C12.8837 11.5914 13.0088 11.6111 13.1235 11.6603L17.5144 13.5421C17.6636 13.6055 17.7881 13.7156 17.8693 13.8559C17.9504 13.9962 17.9838 14.159 17.9643 14.3199C17.8255 15.4059 17.2956 16.4041 16.4739 17.1276C15.6521 17.851 14.5948 18.2502 13.5 18.2502C10.1185 18.2502 6.87548 16.9069 4.48439 14.5158C2.0933 12.1247 0.75 8.88172 0.75 5.50021C0.750058 4.40538 1.14918 3.3481 1.87264 2.52635C2.5961 1.7046 3.59428 1.17472 4.68028 1.03593C4.84117 1.01646 5.00403 1.04981 5.14432 1.13094C5.28461 1.21208 5.39473 1.3366 5.4581 1.48577L7.34158 5.88057C7.3903 5.99424 7.41015 6.1182 7.39936 6.24141C7.38858 6.36461 7.3475 6.48323 7.27977 6.58672L5.72011 8.96982C5.64912 9.07702 5.60716 9.2008 5.59831 9.32907C5.58947 9.45734 5.61405 9.58572 5.66965 9.70165V9.70165Z" stroke="white" stroke-width="1.5" stroke-linecap="round" stroke-linejoin="round"/>
</svg>
