<svg width="20" height="20" viewBox="0 0 20 20" fill="none" xmlns="http://www.w3.org/2000/svg">
<path d="M10.0402 -0.000916993C4.55276 -0.000916993 0.0804022 4.44907 0.0804022 9.90905C0.0804022 11.659 0.542714 13.359 1.40704 14.859L0 19.999L5.27638 18.619C6.73367 19.409 8.37186 19.829 10.0402 19.829C15.5276 19.829 20 15.379 20 9.91905C20 7.26906 18.9648 4.77907 17.0854 2.90907C16.164 1.983 15.0665 1.24875 13.8569 0.749132C12.6473 0.249517 11.3499 -0.00545666 10.0402 -0.000916993ZM10.0503 1.66908C12.2613 1.66908 14.3317 2.52908 15.8995 4.08907C16.669 4.85442 17.279 5.76338 17.6946 6.76382C18.1103 7.76426 18.3233 8.8365 18.3216 9.91905C18.3216 14.459 14.603 18.149 10.0402 18.149C8.55276 18.149 7.09548 17.759 5.82915 16.999L5.52764 16.829L2.39196 17.649L3.22613 14.609L3.02513 14.289C2.19491 12.9777 1.75579 11.4589 1.75879 9.90905C1.76884 5.36907 5.47739 1.66908 10.0503 1.66908ZM6.51256 5.32907C6.35176 5.32907 6.0804 5.38907 5.84925 5.63907C5.62814 5.88907 4.97487 6.49906 4.97487 7.70906C4.97487 8.92906 5.86935 10.0991 5.9799 10.2691C6.1206 10.4391 7.74874 12.939 10.2513 13.999C10.8442 14.269 11.3065 14.419 11.6683 14.529C12.2613 14.719 12.804 14.689 13.2362 14.629C13.7186 14.559 14.7035 14.029 14.9146 13.449C15.1256 12.869 15.1256 12.379 15.0653 12.269C14.995 12.169 14.8342 12.109 14.5829 11.999C14.3317 11.859 13.1055 11.259 12.8844 11.179C12.6533 11.099 12.5126 11.059 12.3216 11.299C12.1608 11.549 11.6784 12.109 11.5377 12.269C11.3869 12.439 11.2462 12.459 11.005 12.339C10.7437 12.209 9.9397 11.949 8.99497 11.109C8.25126 10.4491 7.75879 9.63905 7.60804 9.38906C7.48744 9.14906 7.59799 8.99906 7.71859 8.88906C7.82914 8.77906 7.98995 8.59906 8.09045 8.44906C8.2211 8.30906 8.26131 8.19906 8.34171 8.03906C8.42211 7.86906 8.38191 7.72906 8.32161 7.60906C8.26131 7.49906 7.75879 6.25906 7.54774 5.76907C7.34673 5.28907 7.14573 5.34907 6.98492 5.33907C6.84422 5.33907 6.68342 5.32907 6.51256 5.32907Z" fill="white"/>
</svg>
