<svg width="60" height="60" fill="none" xmlns="http://www.w3.org/2000/svg"><path d="M9.892 50.108c-2.517-2.516-.848-7.8-2.129-10.896-1.328-3.21-6.2-5.793-6.2-9.212 0-3.42 4.872-6.003 6.2-9.212 1.281-3.096-.388-8.38 2.129-10.896 2.516-2.517 7.8-.848 10.896-2.129 3.21-1.328 5.793-6.2 9.212-6.2 3.42 0 6.002 4.872 9.212 6.2 3.096 1.281 8.38-.388 10.896 2.129 2.517 2.516.848 7.8 2.129 10.896 1.328 3.21 6.2 5.793 6.2 9.212 0 3.42-4.872 6.002-6.2 9.212-1.281 3.096.388 8.38-2.129 10.896-2.516 2.517-7.8.848-10.896 2.129-3.21 1.328-5.793 6.2-9.212 6.2-3.42 0-6.003-4.872-9.212-6.2-3.096-1.281-8.38.388-10.896-2.129z" stroke="#4169C1" stroke-width="3" stroke-linecap="round" stroke-linejoin="round"/><path d="M42.031 23.438L25.99 38.75l-8.021-7.656" stroke="#4169C1" stroke-width="3" stroke-linecap="round" stroke-linejoin="round"/></svg>