<svg width="14" height="18" fill="none" xmlns="http://www.w3.org/2000/svg"><path d="M7.002 1c.012 0 .02.004.03.013l5.954 5.294c.012.013.017.034.012.051-.008.017-.025.03-.042.03H1.047c-.017 0-.034-.013-.042-.03-.009-.017 0-.038.013-.05l5.954-5.295A.039.039 0 017.002 1zm5.835 5.295L7.002 1.106 1.167 6.295h11.67z" stroke="#fff" stroke-width=".3" stroke-miterlimit="10"/><path d="M12.955 6.294c.004 0 .013 0 .017.005a.047.047 0 01.026.042v10.594a.047.047 0 01-.026.042c-.017.009-.034.005-.051-.008l-5.95-5.3a.047.047 0 01-.017-.033c0-.013.004-.026.017-.034l5.954-5.295a.039.039 0 01.03-.013zm-.047 10.538V6.444l-5.84 5.193 5.84 5.197z" stroke="#fff" stroke-width=".3" stroke-miterlimit="10"/><path d="M1.047 6.295a.04.04 0 01.03.012l5.954 5.295c.008.009.017.021.017.034a.039.039 0 01-.017.034l-5.954 5.3a.045.045 0 01-.051.008.047.047 0 01-.026-.042V6.34c0-.017.009-.034.026-.042.008 0 .012-.004.02-.004zm5.886 5.341L1.089 6.444v10.389l5.844-5.197z" stroke="#fff" stroke-width=".3" stroke-miterlimit="10"/><path d="M8.967 2.728c.017 0 .03.009.039.021.008.013.008.03 0 .047L7.043 6.308l5.955 10.606-.081.047L6.992 6.405 1.085 16.956l-.08-.046L6.936 6.303 4.98 2.813c-.008-.012-.008-.03 0-.046a.045.045 0 01.039-.022l3.95-.017zM6.988 6.214l1.898-3.392-3.792.017 1.894 3.375z" stroke="#fff" stroke-width=".3" stroke-miterlimit="10"/></svg>