<svg width="66" height="43" fill="none" xmlns="http://www.w3.org/2000/svg"><path d="M61.438 2.25H4.562c-1.208 0-2.187 1.077-2.187 2.406v33.688c0 1.329.98 2.406 2.188 2.406h56.874c1.209 0 2.188-1.077 2.188-2.406V4.656c0-1.329-.98-2.406-2.188-2.406z" stroke="#4169C1" stroke-width="3" stroke-linecap="round" stroke-linejoin="round"/><path d="M33 29.922c4.228 0 7.656-3.77 7.656-8.422 0-4.651-3.428-8.422-7.656-8.422s-7.656 3.77-7.656 8.422c0 4.651 3.428 8.422 7.656 8.422zM43.938 2.25L63.624 21.5M43.938 40.75L63.624 21.5M22.063 2.25L2.375 21.5m19.688 19.25L2.375 21.5" stroke="#4169C1" stroke-width="3" stroke-linecap="round" stroke-linejoin="round"/></svg>