<svg width="32" height="32" fill="none" xmlns="http://www.w3.org/2000/svg"><path d="M19.927 5A10.019 10.019 0 0127 12.073m-15.44 3.529a10.544 10.544 0 004.881 4.86.99.99 0 00.979-.075l3.13-2.087a1.001 1.001 0 01.948-.087l5.855 2.51a.997.997 0 01.6 1.037A6.002 6.002 0 0122 27 17 17 0 015 10a6.001 6.001 0 015.24-5.952.997.997 0 011.037.6l2.512 5.859a1 1 0 01-.083.941l-2.08 3.178a.992.992 0 00-.066.976v0zm7.094-5.849a5.513 5.513 0 013.593 3.593" stroke="#4169C1" stroke-width="3" stroke-linecap="round" stroke-linejoin="round"/></svg>