<svg width="60" height="60" viewBox="0 0 60 60" fill="none" xmlns="http://www.w3.org/2000/svg">
<path d="M9.89165 50.1083C7.37493 47.5916 9.04417 42.3079 7.76318 39.2119C6.43526 36.0024 1.5625 33.4193 1.5625 29.9999C1.5625 26.5805 6.43528 23.9975 7.7632 20.7881C9.04419 17.6921 7.37493 12.4084 9.89165 9.89165C12.4084 7.37493 17.6921 9.04417 20.7881 7.76318C23.9976 6.43526 26.5807 1.5625 30.0001 1.5625C33.4195 1.5625 36.0025 6.43528 39.2119 7.7632C42.3079 9.04419 47.5916 7.37493 50.1083 9.89165C52.6251 12.4084 50.9558 17.6921 52.2368 20.7881C53.5647 23.9976 58.4375 26.5807 58.4375 30.0001C58.4375 33.4195 53.5647 36.0025 52.2368 39.2119C50.9558 42.3079 52.6251 47.5916 50.1083 50.1083C47.5916 52.6251 42.3079 50.9558 39.2119 52.2368C36.0024 53.5647 33.4193 58.4375 29.9999 58.4375C26.5805 58.4375 23.9975 53.5647 20.7881 52.2368C17.6921 50.9558 12.4084 52.6251 9.89165 50.1083Z" stroke="#4169C1" stroke-width="3" stroke-linecap="round" stroke-linejoin="round"/>
<path d="M42.0312 23.4375L25.9895 38.75L17.9688 31.0938" stroke="#4169C1" stroke-width="3" stroke-linecap="round" stroke-linejoin="round"/>
</svg>
