<svg width="51" height="52" viewBox="0 0 51 52" fill="none" xmlns="http://www.w3.org/2000/svg">
<path d="M48.5083 24.3916L26.6103 3.31457C26.3012 3.01701 25.9113 2.81694 25.4893 2.73926C25.0673 2.66159 24.6318 2.70974 24.237 2.87773C23.8421 3.04571 23.5054 3.32611 23.2687 3.68401C23.0321 4.04192 22.9059 4.46154 22.9059 4.89063L22.9059 47.1073C22.9059 47.5364 23.032 47.956 23.2687 48.3139C23.5054 48.6718 23.8421 48.9522 24.237 49.1202C24.6318 49.2882 25.0673 49.3364 25.4893 49.2587C25.9113 49.181 26.3012 48.9809 26.6103 48.6834L48.5083 27.6064C48.7302 27.4015 48.9073 27.153 49.0284 26.8763C49.1495 26.5997 49.212 26.301 49.212 25.999C49.212 25.697 49.1495 25.3983 49.0284 25.1216C48.9073 24.845 48.7302 24.5964 48.5083 24.3916V24.3916Z" stroke="#4169C1" stroke-width="3" stroke-linecap="round" stroke-linejoin="round"/>
<path d="M10.875 1.9375L4.3125 1.9375C3.10438 1.9375 2.125 2.91688 2.125 4.125L2.125 47.875C2.125 49.0831 3.10437 50.0625 4.3125 50.0625L10.875 50.0625C12.0831 50.0625 13.0625 49.0831 13.0625 47.875L13.0625 4.125C13.0625 2.91688 12.0831 1.9375 10.875 1.9375Z" stroke="#4169C1" stroke-width="3" stroke-linecap="round" stroke-linejoin="round"/>
</svg>
