<svg width="14" height="18" viewBox="0 0 14 18" fill="none" xmlns="http://www.w3.org/2000/svg">
<path d="M7.00165 1C7.01442 1 7.02293 1.00426 7.03144 1.01277L12.9857 6.30736C12.9985 6.32013 13.0028 6.34141 12.9985 6.35843C12.99 6.37546 12.973 6.38823 12.9559 6.38823H1.04736C1.03034 6.38823 1.01331 6.37546 1.0048 6.35843C0.996288 6.34141 1.0048 6.32013 1.01757 6.30736L6.97186 1.01277C6.98037 1.00426 6.98888 1 7.00165 1ZM12.8368 6.29459L7.00165 1.1064L1.16653 6.29459H12.8368Z" stroke="white" stroke-width="0.3" stroke-miterlimit="10"/>
<path d="M12.955 6.29437C12.9593 6.29437 12.9678 6.29437 12.972 6.29863C12.9891 6.30714 12.9976 6.32417 12.9976 6.34119V16.9346C12.9976 16.9517 12.9891 16.9687 12.972 16.9772C12.955 16.9857 12.938 16.9815 12.921 16.9687L6.97094 11.6698C6.96243 11.6613 6.95392 11.6486 6.95392 11.6358C6.95392 11.623 6.95817 11.6102 6.97094 11.6017L12.9252 6.30714C12.9337 6.29863 12.9423 6.29437 12.955 6.29437ZM12.9082 16.8325V6.44334L7.06883 11.6358L12.9082 16.8325Z" stroke="white" stroke-width="0.3" stroke-miterlimit="10"/>
<path d="M1.04682 6.29468C1.05959 6.29468 1.0681 6.29893 1.07661 6.30745L7.0309 11.602C7.03941 11.6106 7.04792 11.6233 7.04792 11.6361C7.04792 11.6489 7.04367 11.6616 7.0309 11.6701L1.07661 16.969C1.06384 16.9818 1.04256 16.986 1.02554 16.9775C1.00851 16.969 1 16.952 1 16.9349V6.34149C1 6.32447 1.00851 6.30745 1.02554 6.29893C1.03405 6.29893 1.0383 6.29468 1.04682 6.29468ZM6.93301 11.6361L1.08938 6.44364V16.8328L6.93301 11.6361Z" stroke="white" stroke-width="0.3" stroke-miterlimit="10"/>
<path d="M8.96726 2.72821C8.98428 2.72821 8.99705 2.73672 9.00557 2.74949C9.01408 2.76226 9.01408 2.77928 9.00557 2.79631L7.0435 6.30759L12.9978 16.9138L12.9169 16.9606L6.99243 6.40548L1.08496 16.9564L1.00409 16.9095L6.9371 6.30334L4.97929 2.81333C4.97078 2.80056 4.97078 2.78354 4.97929 2.76652C4.9878 2.75375 5.00057 2.74523 5.0176 2.74523L8.96726 2.72821ZM6.98817 6.21396L8.88639 2.82184L5.09421 2.83887L6.98817 6.21396Z" stroke="white" stroke-width="0.3" stroke-miterlimit="10"/>
</svg>
