<svg width="48" height="60" viewBox="0 0 48 60" fill="none" xmlns="http://www.w3.org/2000/svg">
<path d="M13.0628 58.4375H34.9378" stroke="#4169C1" stroke-width="3" stroke-linecap="round" stroke-linejoin="round"/>
<path d="M10.8662 40.9324C8.16659 38.9087 5.97249 36.2871 4.456 33.2731C2.93952 30.2592 2.14188 26.9349 2.12564 23.5611C2.06012 11.7042 11.619 1.84783 23.4728 1.56883C28.1123 1.45719 32.6672 2.82389 36.4788 5.47135C40.2904 8.11881 43.1613 11.9099 44.6765 16.2964C46.1917 20.683 46.2726 25.4377 44.9076 29.8733C43.5425 34.3088 40.8022 38.1954 37.0829 40.971C36.4127 41.4784 35.87 42.1349 35.4976 42.8885C35.1253 43.6421 34.9337 44.4721 34.9379 45.3126V45.3127C34.9379 45.8928 34.7074 46.4492 34.2971 46.8594C33.8869 47.2697 33.3305 47.5001 32.7504 47.5001H15.2502C14.6701 47.5001 14.1137 47.2697 13.7034 46.8594C13.2932 46.4492 13.0627 45.8929 13.0627 45.3127V45.2507C13.057 44.4098 12.8556 43.5818 12.4743 42.8322C12.0931 42.0827 11.5425 41.4322 10.8662 40.9324V40.9324Z" stroke="#4169C1" stroke-width="3" stroke-linecap="round" stroke-linejoin="round"/>
<path d="M33.6001 21.2497C33.1867 19.4421 32.2719 17.7878 30.9608 16.4767C29.6497 15.1656 27.9954 14.2509 26.1879 13.8375" stroke="#4169C1" stroke-width="3" stroke-linecap="round" stroke-linejoin="round"/>
</svg>
