<svg width="60" height="54" viewBox="0 0 60 54" fill="none" xmlns="http://www.w3.org/2000/svg">
<path d="M3.74927 23.4375H16.8743V51.875H3.74927C3.16911 51.875 2.61271 51.6445 2.20247 51.2343C1.79224 50.8241 1.56177 50.2677 1.56177 49.6875V25.625C1.56177 25.0448 1.79224 24.4884 2.20247 24.0782C2.61271 23.668 3.16911 23.4375 3.74927 23.4375V23.4375Z" stroke="#4169C1" stroke-width="3" stroke-linecap="round" stroke-linejoin="round"/>
<path d="M16.8743 23.4375L27.8118 1.5625C28.9608 1.5625 30.0986 1.78883 31.1602 2.22855C32.2218 2.66828 33.1864 3.3128 33.999 4.12532C34.8115 4.93783 35.456 5.90242 35.8957 6.96402C36.3354 8.02562 36.5618 9.16343 36.5618 10.3125V16.875H53.4808C54.1012 16.875 54.7144 17.0069 55.2799 17.262C55.8454 17.5171 56.3501 17.8896 56.7607 18.3546C57.1712 18.8197 57.4782 19.3667 57.6612 19.9595C57.8442 20.5522 57.899 21.1771 57.8221 21.7927L54.5408 48.0427C54.4085 49.1008 53.8944 50.0741 53.095 50.7798C52.2956 51.4856 51.2659 51.875 50.1996 51.875H16.8743" stroke="#4169C1" stroke-width="3" stroke-linecap="round" stroke-linejoin="round"/>
</svg>
