<svg width="66" height="43" viewBox="0 0 66 43" fill="none" xmlns="http://www.w3.org/2000/svg">
<path d="M61.4375 2.25H4.5625C3.35438 2.25 2.375 3.32731 2.375 4.65625V38.3438C2.375 39.6727 3.35438 40.75 4.5625 40.75H61.4375C62.6456 40.75 63.625 39.6727 63.625 38.3438V4.65625C63.625 3.32731 62.6456 2.25 61.4375 2.25Z" stroke="#4169C1" stroke-width="3" stroke-linecap="round" stroke-linejoin="round"/>
<path d="M33 29.9219C37.2284 29.9219 40.6562 26.1513 40.6562 21.5C40.6562 16.8487 37.2284 13.0781 33 13.0781C28.7716 13.0781 25.3438 16.8487 25.3438 21.5C25.3438 26.1513 28.7716 29.9219 33 29.9219Z" stroke="#4169C1" stroke-width="3" stroke-linecap="round" stroke-linejoin="round"/>
<path d="M43.9375 2.25L63.625 21.5" stroke="#4169C1" stroke-width="3" stroke-linecap="round" stroke-linejoin="round"/>
<path d="M43.9375 40.75L63.625 21.5" stroke="#4169C1" stroke-width="3" stroke-linecap="round" stroke-linejoin="round"/>
<path d="M22.0625 2.25L2.375 21.5" stroke="#4169C1" stroke-width="3" stroke-linecap="round" stroke-linejoin="round"/>
<path d="M22.0625 40.75L2.375 21.5" stroke="#4169C1" stroke-width="3" stroke-linecap="round" stroke-linejoin="round"/>
</svg>
