<svg width="54" height="48" viewBox="0 0 54 48" fill="none" xmlns="http://www.w3.org/2000/svg">
<path d="M40.2188 32.75C42.635 32.75 44.5938 30.7912 44.5938 28.375C44.5938 25.9588 42.635 24 40.2188 24C37.8025 24 35.8438 25.9588 35.8438 28.375C35.8438 30.7912 37.8025 32.75 40.2188 32.75Z" fill="#4169C1"/>
<path d="M1.93755 7.59375V41.5C1.93755 42.6603 2.39849 43.7731 3.21896 44.5936C4.03943 45.4141 5.15223 45.875 6.31255 45.875H50.0626C50.6427 45.875 51.1991 45.6445 51.6094 45.2343C52.0196 44.8241 52.2501 44.2677 52.2501 43.6875V15.25C52.2501 14.6698 52.0196 14.1134 51.6094 13.7032C51.1991 13.293 50.6427 13.0625 50.0626 13.0625H7.53737C4.57202 13.0625 2.04647 10.7566 1.9411 7.79317C1.91432 7.0587 2.03585 6.32637 2.29844 5.63993C2.56103 4.95348 2.95929 4.32701 3.46942 3.79793C3.97956 3.26885 4.5911 2.84802 5.26752 2.56059C5.94393 2.27315 6.67135 2.12501 7.4063 2.125H43.5001" stroke="#4169C1" stroke-width="3" stroke-linecap="round" stroke-linejoin="round"/>
</svg>
